<svg xmlns="http://www.w3.org/2000/svg" xmlns:xlink="http://www.w3.org/1999/xlink" id="Capa_1" x="0px" y="0px" viewBox="0 0 300 265" style="enable-background:new 0 0 300 265;" xml:space="preserve"><style type="text/css">	.st0{fill:#3CB4E5;}	.st1{fill:#0075A9;}	.st2{fill:#238DC1;}	.st3{fill:#236092;}	.st4{fill:#F1F1F1;}</style><g>	<path class="st0" d="M84.58,228.28C48.69,178.66,25.48,115.34,24.2,68.04c-0.48-8.17-0.17-15.14,0.98-20.47h0v-0.01h0h0  c0.06-0.47,0,0.01,0,0.01c-56.98,19.33-8.99,130.37,71.2,194.39C92.26,237.99,88.32,233.44,84.58,228.28z"></path>	<g>		<path class="st1" d="M65.01,10.92c58.64,0.11,166.81,34.57,212.47,79.78C232.53,41.72,130.25,1.67,73.36,0.43   C45.37-0.19,30.39,17.2,25.74,43.97C32.67,22.43,49.29,10.9,65.01,10.92z"></path>		<path class="st1" d="M298.15,125.48c0.81,4.7,0.78,9.44-0.16,14.21c-7.79,39.15-55.14,89.91-107.17,108.43   c-12.43,5.63-26.48,8.97-42.31,9.02c-14.81,0.06-41.2-14.18-41.2-14.18l-3.58-2.68C56.59,203.52,26.98,115.66,24.2,68.04   c1.27,47.3,24.49,110.62,60.37,160.24c3.74,5.15,7.68,9.71,11.81,13.68c1.13,1.09,2.27,2.13,3.42,3.13   c8.77,7.61,18.27,12.79,28.19,15.88c15.05,4.69,31.08,4.6,47.08,1.01c56.85-12.81,113.3-69.93,123.53-114.56   C300.27,140.12,300.02,132.77,298.15,125.48z"></path>	</g>	<path class="st2" d="M26.09,47.28c13.48-4.17,30.18-6.99,48.47-8.49c5.94-0.49,12.05-0.81,18.27-1.01  c9.83-0.32,19.94-0.29,30.13,0.15c8.73,0.36,17.87,1.01,27.35,2.1c18.94,2.12,37.45,5.57,54.14,10.45  c5.48,1.5,11.01,3.15,16.58,4.98c21.54,7.69,36.01,17.86,44.34,30.33c4.3,5.88,7.08,12.33,8.03,19.35c0.22,1.6,0.37,3.26,0.48,4.93  c0.66,7.01,0.12,14.48-1.55,22.42c0,0.01,0,0.01,0,0.03c-2.07,11.41-5.98,23.52-11.43,35.52c-12.43,29.42-34.61,64.01-70.08,80.07  c52.04-18.52,99.38-69.28,107.17-108.43c0.95-4.77,0.97-9.52,0.16-14.21c-2.04-12-9.48-23.72-20.66-34.78  C231.82,45.48,123.65,11.02,65.01,10.92C49.29,10.9,32.67,22.43,25.74,43.97c-0.19,0.6-0.15,1.28-0.33,1.91l-0.02,0.28l-0.21,1.43  L26.09,47.28z"></path>	<path class="st3" d="M275.82,110.35c-0.6-8.89-5.55-17.24-10.44-24.56c-8.33-12.47-22.86-22.68-44.39-30.37  c-3.6-1.18-7.16-2.27-10.71-3.3c-1.26-0.37-2.52-0.75-3.78-1.11c-0.68-0.19-1.37-0.34-2.04-0.54  c-19.19-5.67-37.05-8.49-54.14-10.45c-9.48-1.08-18.62-1.74-27.35-2.1c-52.87-2.11-86.06,5.73-96.87,9.35  c-0.59,0.2-0.9,0.28-0.9,0.29h0c-1.15,5.34-1.46,12.3-0.98,20.47c2.78,47.63,32.39,135.48,79.51,172.24  c1.18,0.92,2.37,1.8,3.58,2.68c12.6,8.96,26.39,14.24,41.2,14.18c15.84-0.05,29.88-3.39,42.31-9.02  c35.48-16.06,58.26-50.5,70.97-79.8C269.49,150.56,276.94,127.06,275.82,110.35z"></path>	<g>		<path class="st4" d="M177.99,148.42h8.5c2.43,0,4.39-1.97,4.39-4.3V87.33c0-2.43-1.96-4.3-4.39-4.3h-8.5c-2.33,0-4.3,1.87-4.3,4.3   v56.88C173.69,146.55,175.66,148.42,177.99,148.42z"></path>		<path class="st4" d="M139.13,135.91h-15.97c-4.66,0-8.22-1.51-9.72-4.68c-1.5-3.09-3.55-4.3-6.16-4.3h-5.41   c-1.22,0-4.67,0.85-4.67,5.05c0,9.99,12.6,16.8,24.37,16.8h13.82c22.42,0,28.95-7.84,28.95-19.05c0-24.38-49.41-18.12-49.41-28.96   c0-3.27,2.43-5.22,8.04-5.22h13.73c4.67,0,8.22,1.5,9.72,4.67c1.5,3.08,3.55,4.29,6.16,4.29H158c1.21,0,4.67-0.84,4.67-5.04   c0-10-12.61-16.8-24.38-16.8h-11.58c-22.42,0-28.95,7.84-28.95,19.05c0,24.19,49.41,18.12,49.41,28.96   C147.16,133.93,144.73,135.91,139.13,135.91z"></path>		<path class="st4" d="M112.71,164.86h-3.65c-1.07,0-1.87-0.34-2.22-1.06c-0.34-0.7-0.81-0.98-1.41-0.98h-1.24   c-0.28,0-1.07,0.19-1.07,1.14c0,2.29,2.89,3.85,5.57,3.85h3.16c5.12,0,6.61-1.8,6.61-4.36c0-5.56-11.28-4.13-11.28-6.6   c0-0.75,0.55-1.2,1.83-1.2h3.14c1.07,0,1.88,0.34,2.22,1.07c0.34,0.7,0.81,0.97,1.4,0.97h1.24c0.28,0,1.07-0.18,1.07-1.15   c0-2.28-2.89-3.84-5.58-3.84h-2.64c-5.12,0-6.61,1.79-6.61,4.34c0,5.53,11.28,4.14,11.28,6.62   C114.54,164.42,113.99,164.86,112.71,164.86z"></path>		<path class="st4" d="M112.19,170.4h-3.7c-1.02,0-1.86,0.8-1.86,1.86v15.35c0,3.89-1.63,5.76-5.24,5.76h-3.16   c-3.61,0-5.23-1.87-5.23-5.76v-15.35c0-1.06-0.85-1.86-1.87-1.86h-3.69c-1.06,0-1.91,0.8-1.91,1.86v15.31   c0,7.18,4.23,11.4,12.5,11.4h3.57c8.28,0,12.5-4.23,12.5-11.4v-15.31C114.09,171.2,113.24,170.4,112.19,170.4z"></path>		<path class="st4" d="M144.17,170.4h-3.41c-1.02,0-1.87,0.8-1.87,1.82v18.46l-11.98-18.42c-0.6-0.93-1.74-1.86-2.72-1.86h-5.84   c-1.01,0-1.82,0.85-1.82,1.86v24.67c0,1.01,0.85,1.87,1.86,1.87h3.49c1.01,0,1.87-0.85,1.87-1.87v-17l10.96,17   c0.65,1.01,1.82,1.87,2.88,1.87h6.58c1.05,0,1.86-0.85,1.86-1.87v-24.67C146.04,171.2,145.22,170.4,144.17,170.4z"></path>		<path class="st4" d="M148.94,167.72c0.53,0,1.09-0.42,1.28-0.94l3.66-10.24v10.17c0,0.57,0.43,1.01,0.98,1.01h1.88   c0.55,0,0.98-0.44,0.98-1.01v-12.92c0-0.55-0.43-1.01-0.96-1.01h-4.25c-0.56,0-1.09,0.46-1.26,0.99l-3.07,8.9l-3.07-8.9   c-0.17-0.53-0.71-0.99-1.26-0.99h-4.25c-0.53,0-0.96,0.46-0.96,1.01v12.92c0,0.57,0.42,1.01,0.98,1.01h1.88   c0.56,0,0.97-0.44,0.97-1.01v-10.17l3.67,10.24c0.19,0.52,0.74,0.94,1.28,0.94H148.94z"></path>		<path class="st4" d="M186.64,167.81c5.12,0,6.61-1.8,6.61-4.36c0-5.56-11.28-4.13-11.28-6.6c0-0.75,0.56-1.2,1.83-1.2h3.14   c1.07,0,1.88,0.34,2.22,1.07c0.34,0.7,0.81,0.97,1.41,0.97h1.23c0.28,0,1.07-0.18,1.07-1.15c0-2.28-2.88-3.84-5.57-3.84h-2.65   c-5.12,0-6.61,1.79-6.61,4.34c0,5.53,11.29,4.14,11.29,6.62c0,0.75-0.55,1.19-1.83,1.19h-3.65c-1.07,0-1.88-0.34-2.22-1.06   c-0.34-0.7-0.81-0.98-1.41-0.98h-1.23c-0.28,0-1.07,0.19-1.07,1.14c0,2.29,2.88,3.85,5.57,3.85H186.64z"></path>		<path class="st4" d="M214.33,170.4h-8.07c-1.07,0-2.08,0.85-2.4,1.86l-5.85,16.93l-5.84-16.93c-0.33-1.01-1.34-1.86-2.4-1.86   h-8.08c-1.01,0-1.82,0.85-1.82,1.9v24.6c0,1.05,0.81,1.91,1.87,1.91h3.57c1.05,0,1.87-0.85,1.87-1.91v-19.35l6.98,19.48   c0.36,0.97,1.42,1.78,2.43,1.78h2.84c1.02,0,2.07-0.81,2.44-1.78l6.98-19.48v19.35c0,1.05,0.81,1.91,1.87,1.91h3.57   c1.05,0,1.86-0.85,1.86-1.91v-24.6C216.16,171.25,215.35,170.4,214.33,170.4z"></path>		<path class="st4" d="M159.87,160.24c0,5.56,3.05,7.79,8.38,7.79c5.33,0,8.38-2.22,8.38-7.79c0-5.54-3.05-7.78-8.38-7.78   C162.91,152.46,159.87,154.71,159.87,160.24z M168.25,155.28c3.2,0,4.46,1.77,4.46,4.97c0,3.2-1.26,4.98-4.46,4.98   c-3.2,0-4.46-1.77-4.46-4.98C163.79,157.05,165.05,155.28,168.25,155.28z"></path>		<path class="st4" d="M128.14,152.46c-5.33,0-8.38,2.24-8.38,7.78c0,5.56,3.05,7.79,8.38,7.79c5.33,0,8.39-2.22,8.39-7.79   C136.53,154.71,133.47,152.46,128.14,152.46z M128.14,165.22c-3.2,0-4.46-1.77-4.46-4.98c0-3.2,1.26-4.97,4.46-4.97   c3.2,0,4.46,1.77,4.46,4.97C132.6,163.45,131.34,165.22,128.14,165.22z"></path>		<path class="st4" d="M175.34,170.4h-10.68c-5.76,0-11.48,1.42-13.14,7.71l-5,18.88c-0.29,1.01,0.33,1.82,1.38,1.82h3.9   c1.06,0,2.07-0.81,2.35-1.87l1.34-4.99h14.07v4.99c0,1.05,0.81,1.87,1.87,1.87h3.74c1.01,0,1.86-0.81,1.86-1.82v-24.76   C177.04,171.25,176.31,170.4,175.34,170.4z M169.57,186.34h-12.62l1.75-6.37c0.65-2.43,2.67-3.98,5.23-3.98h5.64V186.34z"></path>	</g></g><g></g><g></g><g></g><g></g><g></g><g></g><g></g><g></g><g></g><g></g><g></g><g></g><g></g><g></g><g></g></svg>